# xmcd
#
# Track frame offsets: 
#        150
#        28267
#        55605
#        81477
#        143452
#        169350
#        186000
#        217195
#        234900
#        266282
#        287480
#        309157
#
# Disc length: 4368 seconds
#
# Revision: 2
# Processed by: cddbd v1.5PL3 Copyright (c) Steve Scherf et al.
# Submitted via: ExactAudioCopy v0.95a3
#
DISCID=a1110e0c
DTITLE=Philippe Entremont - Mozart: The Complete Piano Sonatas Volume 
DTITLE=2
DYEAR=1990
DGENRE=Classical
TTITLE0=Sonata No.10 In C Major K.330: Allegro Moderato
TTITLE1=Sonata No.10 In C Major K.330: Andante Cantabile
TTITLE2=Sonata No.10 In C Major K.330: Allegretto
TTITLE3=Sonata No.11 In A Major K.331: Theme: Andante Grazioso (And Va
TTITLE3=riations)
TTITLE4=Sonata No.11 In A Major K.331: Menuetto And Trio
TTITLE5=Sonata No.11 In A Major K.331: (Rondo) Alla Turca: Allegretto
TTITLE6=Sonata No.12 In F Major K.332: Allegro
TTITLE7=Sonata No.12 In F Major K.332: Adagio
TTITLE8=Sonata No.12 In F Major K.332: Allegro Assai
TTITLE9=Sonata No.17 In D Major K.576: Allegro
TTITLE10=Sonata No.17 In D Major K.576: Adagio
TTITLE11=Sonata No.17 In D Major K.576: Allegretto
EXTD=
EXTT0=
EXTT1=
EXTT2=
EXTT3=
EXTT4=
EXTT5=
EXTT6=
EXTT7=
EXTT8=
EXTT9=
EXTT10=
EXTT11=
PLAYORDER=
